<svg xmlns="http://www.w3.org/2000/svg" xmlns:xlink="http://www.w3.org/1999/xlink" viewBox="0 0 184 248"><defs><style>.cls-1{fill:none;}.cls-2{clip-path:url(#clip-path);}.cls-3{fill:#1a1a18;}</style><clipPath id="clip-path" transform="translate(0 0)"><rect class="cls-1" width="184" height="248"/></clipPath></defs><title>share-icon</title><g id="Camada_2" data-name="Camada 2"><g id="Camada_1-2" data-name="Camada 1"><g class="cls-2"><path class="cls-3" d="M64.48,56.48,80,41V164a12,12,0,0,0,24,0V41l15.52,15.51a12,12,0,1,0,17-17l-36-36a11,11,0,0,0-.88-.8l-.42-.31c-.17-.13-.35-.27-.53-.39s-.34-.21-.51-.31l-.5-.3-.53-.25L96.59.91,96.07.72c-.2-.07-.39-.15-.59-.2S95.13.43,95,.38s-.41-.11-.62-.15-.4-.06-.6-.09L93.18.06A10.32,10.32,0,0,0,92.07,0h-.14a10.32,10.32,0,0,0-1.11.06l-.55.08c-.2,0-.41,0-.61.09s-.41.1-.61.15-.36.08-.53.14-.39.13-.58.19l-.53.2-.52.24c-.18.09-.37.17-.55.27s-.32.18-.48.28L85.33,2l-.5.37c-.15.11-.3.21-.44.33-.29.24-.57.49-.84.76l0,0-36,36a12,12,0,0,0,17,17" transform="translate(0 0)"/><path class="cls-3" d="M172,80H140a12,12,0,0,0,0,24h20V224H24V104H44a12,12,0,0,0,0-24H12A12,12,0,0,0,0,92V236a12,12,0,0,0,12,12H172a12,12,0,0,0,12-12V92a12,12,0,0,0-12-12" transform="translate(0 0)"/></g></g></g></svg>